<?xml version="1.0" encoding="utf-8"?>
<!-- Generator: Adobe Illustrator 16.0.4, SVG Export Plug-In . SVG Version: 6.00 Build 0)  -->
<!DOCTYPE svg PUBLIC "-//W3C//DTD SVG 1.1//EN" "http://www.w3.org/Graphics/SVG/1.1/DTD/svg11.dtd">
<svg version="1.1" id="Layer_1" xmlns="http://www.w3.org/2000/svg" xmlns:xlink="http://www.w3.org/1999/xlink" x="0px" y="0px"
	 width="500px" height="500px" viewBox="0 0 500 500" enable-background="new 0 0 500 500" xml:space="preserve">
<title>person</title>
<desc>Created with Sketch.</desc>
<g id="Exports">
	<g id="person">
		<path id="Path" fill="#172C4C" d="M309.047,129.48H190.96c-28.674,0-51.96,20-51.96,44.641v133.923h0.305
			c1.458,10.605,9.189,18.733,18.589,18.733c9.401,0,17.132-8.128,18.59-18.733h0.305V174.121h14.171V477.68v0.012
			c0,12.312,11.636,22.309,25.969,22.309c14.349,0,25.988-9.997,25.988-22.309v-0.012V308.044h14.17V477.68v0.012
			c0,12.312,11.639,22.309,25.99,22.309c14.331,0,25.969-9.997,25.969-22.309v-0.012V174.121h14.17v133.923h0.193
			c0.971,11.256,8.913,20.073,18.701,20.073c9.789,0,17.731-8.817,18.701-20.073h0.193V174.121
			C361.006,149.47,337.721,129.48,309.047,129.48z M302.648,53.97c0,29.249-23.581,52.968-52.646,52.968
			s-52.645-23.72-52.645-52.968c0-29.246,23.581-52.97,52.645-52.97S302.648,24.724,302.648,53.97z"/>
	</g>
</g>
</svg>
